<!DOCTYPE svg PUBLIC "-//W3C//DTD SVG 1.1//EN" "http://www.w3.org/Graphics/SVG/1.1/DTD/svg11.dtd">
<!-- Uploaded to: SVG Repo, www.svgrepo.com, Transformed by: SVG Repo Mixer Tools -->
<svg version="1.1" id="Layer_1" xmlns="http://www.w3.org/2000/svg" xmlns:xlink="http://www.w3.org/1999/xlink" viewBox="0 0 512 512" xml:space="preserve" width="800px" height="800px" fill="#000000">
<g id="SVGRepo_bgCarrier" stroke-width="0"/>
<g id="SVGRepo_tracerCarrier" stroke-linecap="round" stroke-linejoin="round"/>
<g id="SVGRepo_iconCarrier"> <path style="fill:#00ff94;" d="M310.624,0H64v512h384V137.376L310.624,0z M320,54.624L393.376,128H320V54.624z M96,480V32h192v128 h128v320H96z"/> <polygon style="fill:#0b0c0e;" points="384,448 128,448 128,64 288,64 288,160 384,160 "/> <g> <rect x="240.008" y="237.408" transform="matrix(-0.9488 -0.3159 0.3159 -0.9488 402.8737 673.3055)" style="fill:#00ff94;" width="32" height="133.185"/> <polygon style="fill:#00ff94;" points="324.432,374.192 297.808,356.432 332.768,304 297.808,251.568 324.432,233.808 371.232,304 "/> <polygon style="fill:#00ff94;" points="187.568,374.192 140.768,304 187.568,233.808 214.192,251.568 179.232,304 214.192,356.432 "/> </g> </g>
</svg>